<?xml version="1.0" standalone="no"?>
<!DOCTYPE svg PUBLIC "-//W3C//DTD SVG 20010904//EN"
 "http://www.w3.org/TR/2001/REC-SVG-20010904/DTD/svg10.dtd">
<svg version="1.0" xmlns="http://www.w3.org/2000/svg"
 width="640.000000pt" height="1280.000000pt" viewBox="0 0 640.000000 1280.000000"
 preserveAspectRatio="xMidYMid meet">
<metadata>
Created by potrace 1.15, written by Peter Selinger 2001-2017
</metadata>
<g transform="translate(0.000000,1280.000000) scale(0.100000,-0.100000)"
fill="#000000" stroke="none">
<path d="M3131 12771 c-38 -36 -40 -69 -6 -109 25 -30 25 -31 5 -37 -12 -4
-19 -13 -16 -20 3 -9 -14 -16 -57 -24 -145 -28 -244 -71 -306 -133 -51 -51
-79 -128 -46 -128 13 0 15 -32 15 -230 0 -198 -2 -230 -15 -230 -10 0 -15 -11
-15 -35 0 -24 5 -35 15 -35 13 0 15 -26 15 -175 l0 -175 -200 0 -200 0 0 -311
0 -311 -25 -20 c-29 -23 -34 -77 -10 -101 10 -11 13 -25 9 -46 -4 -19 -2 -37
6 -46 10 -12 10 -48 1 -173 -6 -86 -20 -294 -31 -462 -11 -168 -25 -375 -30
-460 -6 -85 -31 -461 -56 -835 -59 -906 -111 -1687 -123 -1865 -16 -221 -27
-397 -87 -1285 -30 -451 -59 -878 -64 -950 -5 -71 -19 -267 -30 -435 -11 -168
-29 -433 -40 -590 -11 -157 -22 -339 -25 -405 -7 -133 -96 -1467 -120 -1775
-13 -180 -95 -1348 -95 -1363 0 -4 718 -7 1595 -7 l1595 0 0 38 c0 20 -7 134
-15 252 -18 254 -25 363 -65 945 -16 242 -43 638 -60 880 -16 242 -41 611 -55
820 -13 209 -29 450 -35 535 -6 85 -15 218 -20 295 -5 77 -14 205 -20 285 -5
80 -14 215 -20 300 -6 85 -17 247 -25 360 -8 113 -29 405 -45 650 -17 245 -35
510 -40 590 -5 80 -14 217 -20 305 -5 88 -15 230 -20 315 -19 275 -29 432 -40
595 -15 228 -48 696 -60 855 -14 186 -66 961 -90 1330 -20 309 -33 504 -50
750 -33 472 -35 577 -12 595 21 17 12 97 -13 110 -19 10 -20 19 -17 323 l2
312 -200 0 -200 0 0 175 c0 149 2 175 15 175 10 0 15 11 15 35 0 24 -5 35 -15
35 -13 0 -15 32 -15 230 0 198 2 230 15 230 33 0 5 77 -46 128 -62 62 -161
105 -306 133 -34 6 -61 16 -60 22 1 6 -7 15 -19 21 -20 9 -20 9 3 32 35 35 31
85 -8 118 -41 34 -79 33 -118 -3z m-354 -464 c-3 -8 -9 -45 -13 -83 -7 -66 -8
-67 -15 -29 -21 128 -22 125 7 125 18 0 24 -4 21 -13z m69 -24 c-3 -21 -9 -62
-12 -90 -4 -29 -11 -50 -15 -47 -5 3 -9 -19 -10 -48 0 -29 -6 -84 -13 -123
l-13 -70 -12 99 c-10 80 -10 115 0 185 l13 86 13 -60 12 -60 -5 54 c-3 30 -8
67 -11 82 -5 27 -3 29 27 29 32 0 33 -1 26 -37z m150 22 c-3 -8 -17 -54 -32
-102 l-27 -88 -33 95 c-18 52 -33 88 -33 80 -1 -8 13 -56 30 -107 30 -90 30
-93 14 -139 -8 -25 -13 -56 -10 -68 4 -14 3 -17 -3 -8 -6 9 -12 1 -20 -26 -16
-53 -14 -66 3 -22 l14 35 -6 -45 c-11 -82 -19 -71 -46 64 -19 96 -19 114 -8
189 7 45 17 99 22 120 l10 37 65 0 c55 0 65 -3 60 -15z m179 -2 c-4 -10 -11
-30 -16 -44 -6 -16 -23 -31 -47 -40 -20 -7 -40 -15 -43 -17 -5 -2 -49 100 -49
114 0 2 36 4 81 4 73 0 80 -2 74 -17z m195 13 c0 -5 -40 -99 -44 -103 -1 -1
-21 4 -45 11 -34 10 -46 20 -62 52 -18 36 -21 22 -4 -18 6 -15 2 -18 -19 -18
-30 0 -32 9 -11 50 15 30 17 30 100 30 47 0 85 -2 85 -4z m146 -11 c-3 -8 -17
-53 -32 -100 -14 -47 -28 -85 -30 -85 -3 0 -64 185 -64 195 0 3 30 5 66 5 54
0 65 -3 60 -15z m80 -27 c-4 -24 -9 -63 -11 -88 -3 -33 -1 -27 9 20 l13 65 9
-40 c12 -52 9 -251 -4 -290 -8 -22 -11 -25 -12 -10 -2 39 -29 211 -38 250 -6
22 -13 61 -17 88 l-6 47 32 0 32 0 -7 -42z m60 -188 c1 -224 1 -230 -19 -230
-18 0 -19 5 -13 53 3 28 6 68 7 87 0 28 2 31 9 15 5 -12 8 18 8 80 0 64 -3 93
-8 80 -8 -20 -9 -20 -9 1 -1 12 -4 49 -7 83 -6 56 -5 61 12 61 19 0 20 -10 20
-230z m-622 157 l18 -53 -45 -44 c-24 -25 -46 -52 -49 -60 -3 -8 -8 -12 -12
-9 -7 7 55 219 64 219 3 0 14 -24 24 -53z m382 -47 l32 -100 -54 53 -54 54 17
46 c10 26 20 47 23 47 3 0 19 -45 36 -100z m139 -54 c8 -55 21 -135 29 -176
22 -108 21 -110 -15 -110 l-32 0 7 45 c3 25 8 66 11 93 l4 47 -9 -45 c-5 -25
-12 -61 -16 -80 -6 -33 -8 -30 -40 65 l-35 100 33 103 c37 119 40 117 63 -42z
m-812 -119 c-9 -37 -11 -29 -10 63 l0 105 10 -63 c7 -42 6 -76 0 -105z m188
12 c-5 -13 -10 -19 -10 -12 -1 15 10 45 15 40 3 -2 0 -15 -5 -28z m-82 -156
c1 -19 -4 -23 -29 -23 -16 0 -30 5 -30 11 0 18 22 142 28 159 5 15 30 -103 31
-147z m-80 20 c1 -37 -2 -43 -20 -43 -22 0 -22 -3 -2 123 l7 42 7 -40 c4 -22
8 -59 8 -82z m-3 -195 c-11 -90 -10 -90 -30 40 -6 39 -5 42 17 42 23 0 23 0
13 -82z m83 60 c-1 -48 -25 -159 -32 -152 -4 4 -8 -19 -8 -52 -2 -73 -11 -116
-25 -121 -19 -6 -27 127 -13 219 l13 83 13 -60 12 -60 -5 54 c-3 30 -8 67 -11
82 -5 27 -3 29 26 29 26 0 31 -4 30 -22z m46 -10 c4 -18 16 -59 27 -91 11 -31
18 -62 16 -69 -2 -6 -17 30 -33 81 -16 51 -31 88 -33 82 -2 -6 10 -53 28 -105
l31 -94 -19 -59 c-16 -49 -23 -58 -43 -58 -21 0 -25 6 -33 55 -6 37 -4 82 4
135 23 152 41 191 55 123z m701 -10 c-4 -24 -9 -63 -11 -88 -3 -32 -1 -26 8
20 12 57 14 62 20 35 22 -105 18 -280 -6 -272 -7 2 -17 41 -24 88 -6 46 -16
102 -21 124 -6 22 -13 61 -17 88 l-6 47 32 0 32 0 -7 -42z m62 -114 c1 -86 0
-164 -3 -175 -10 -30 -25 -22 -24 14 0 26 2 29 9 12 5 -12 8 18 8 80 0 55 -3
92 -7 81 -5 -12 -11 10 -17 63 -9 78 -9 81 11 81 19 0 20 -7 23 -156z m-104
-18 c8 -55 19 -118 24 -138 9 -33 8 -38 -7 -38 -13 0 -16 8 -15 38 l3 37 -7
-35 c-6 -28 -12 -35 -31 -35 -20 0 -27 9 -43 58 l-19 58 33 101 c37 117 40
115 62 -46z m-808 -101 c-3 -38 -2 -53 4 -40 8 18 9 17 9 -7 1 -30 -13 -38
-23 -12 -3 9 -6 59 -5 112 1 88 2 93 11 52 5 -25 7 -72 4 -105z m307 -55 c-5
-17 -12 -21 -40 -18 -34 3 -36 6 -54 63 -27 88 -18 94 45 31 42 -42 53 -59 49
-76z m397 112 c0 -4 -9 -36 -21 -70 -20 -59 -22 -62 -54 -62 -53 0 -51 24 8
84 52 52 67 63 67 48z m-497 -84 l16 -48 -34 0 -33 0 16 50 c9 27 16 49 17 47
1 -1 9 -23 18 -49z m515 -46 c-42 -8 -47 0 -30 52 l16 49 16 -49 c16 -47 16
-49 -2 -52z m-636 33 c3 -24 0 -35 -9 -35 -13 0 -19 51 -6 63 10 11 11 9 15
-28z m303 -27 c5 -4 -10 -8 -33 -8 -45 0 -45 0 -36 24 5 12 11 13 32 4 15 -7
31 -15 37 -20z m189 7 c4 -12 -3 -15 -37 -15 l-42 1 30 14 c39 18 42 18 49 0z
m-141 -12 c-7 -2 -19 -2 -25 0 -7 3 -2 5 12 5 14 0 19 -2 13 -5z m-774 -75
c-1 -18 -4 -58 -8 -88 l-7 -55 -7 60 c-4 33 -10 72 -13 88 -5 22 -2 27 15 27
17 0 21 -6 20 -32z m161 25 c0 -13 -42 -228 -45 -231 -1 -2 -10 41 -20 95 -9
54 -19 108 -22 121 -5 20 -2 22 41 22 25 0 46 -3 46 -7z m150 -28 c0 -24 -5
-35 -15 -35 -10 0 -15 -10 -15 -27 0 -36 -13 -20 -34 41 -9 27 -16 51 -16 53
0 2 18 3 40 3 39 0 40 -1 40 -35z m50 0 c0 -28 -4 -35 -20 -35 -21 0 -24 10
-14 48 10 36 34 27 34 -13z m30 23 c0 6 7 12 16 12 13 0 15 -6 9 -27 -7 -28
-22 -50 -28 -42 -2 2 -7 20 -11 39 -4 25 -3 31 4 20 6 -10 10 -11 10 -2z m183
5 c2 -5 7 -20 11 -35 6 -26 4 -28 -27 -28 -28 0 -36 5 -50 35 l-17 35 40 0
c21 0 41 -3 43 -7z m40 -13 c-3 -11 -9 -20 -13 -20 -4 0 -10 9 -13 20 -4 15 0
20 13 20 13 0 17 -5 13 -20z m137 15 c0 -4 -7 -19 -15 -35 -14 -28 -20 -30
-70 -30 -58 0 -62 4 -43 45 10 23 17 25 70 25 32 0 58 -2 58 -5z m199 -26 c6
-18 11 -34 11 -35 0 -2 -26 -4 -58 -4 -53 0 -60 2 -70 25 -19 41 -15 45 47 45
57 0 59 -1 70 -31z m31 11 c0 -11 -4 -20 -9 -20 -5 0 -11 9 -14 20 -3 13 0 20
9 20 8 0 14 -9 14 -20z m90 15 c0 -4 -7 -19 -15 -35 -12 -23 -22 -30 -45 -30
-33 0 -35 5 -20 44 8 21 16 26 45 26 19 0 35 -2 35 -5z m114 -11 c10 -27 7
-54 -7 -54 -13 0 -37 40 -37 60 0 16 37 11 44 -6z m64 -22 c3 -27 0 -32 -17
-32 -17 0 -21 6 -21 36 0 28 3 35 18 32 11 -2 18 -14 20 -36z m78 12 c-4 -15
-13 -41 -21 -58 -12 -27 -13 -28 -14 -8 -1 12 -7 22 -16 22 -10 0 -15 11 -15
35 0 34 2 35 36 35 34 0 36 -2 30 -26z m164 12 c0 -15 -27 -167 -37 -206 -4
-18 -10 -1 -23 65 -9 50 -20 105 -24 123 l-8 32 46 0 c33 0 46 -4 46 -14z
m104 -63 c-7 -84 -24 -124 -24 -56 0 22 -3 61 -6 87 -6 42 -5 46 15 46 20 0
20 -3 15 -77z m-504 32 c0 -16 -6 -25 -15 -25 -18 0 -18 5 -5 31 14 26 20 24
20 -6z m258 -386 l-3 -141 -32 90 c-28 77 -33 103 -33 183 0 81 5 107 32 186
l33 93 3 -134 c1 -74 1 -199 0 -277z m-1168 134 c0 -146 -2 -264 -5 -261 -14
14 -52 264 -45 297 5 20 16 80 25 134 10 53 19 97 21 97 2 0 4 -120 4 -267z
m256 230 c-11 -11 -17 4 -9 23 7 18 8 18 11 1 2 -10 1 -21 -2 -24z m64 5 c0
-5 -4 -8 -10 -8 -5 0 -10 10 -10 23 0 18 2 19 10 7 5 -8 10 -18 10 -22z m256
-5 c-11 -11 -17 4 -9 23 7 18 8 18 11 1 2 -10 1 -21 -2 -24z m753 -235 l-1
-273 -25 137 -26 136 23 136 c13 75 25 136 27 136 2 0 3 -123 2 -272z m-1219
1 c0 -59 -6 -93 -26 -145 -15 -38 -30 -80 -34 -94 -5 -14 -8 94 -9 240 l0 265
34 -95 c28 -77 35 -109 35 -171z m530 240 c0 -5 -4 -9 -10 -9 -5 0 -10 7 -10
16 0 8 5 12 10 9 6 -3 10 -10 10 -16z m-801 -211 c-1 -154 -4 -201 -10 -168
-12 62 -15 210 -5 303 4 42 10 77 12 77 2 0 4 -96 3 -212z m1407 50 c15 -78
11 -120 -29 -303 -3 -11 -5 90 -5 225 0 176 3 232 9 200 6 -25 16 -80 25 -122z
m-1327 -75 c1 -47 -6 -94 -29 -193 -5 -21 -8 57 -8 195 l0 230 19 -90 c10 -49
18 -113 18 -142z m1510 20 c-2 -158 -3 -169 -10 -98 -8 71 -2 275 7 275 2 0 3
-80 3 -177z m-47 -79 c-9 -84 -9 -79 -9 81 0 155 0 163 9 89 5 -49 5 -117 0
-170z m-1594 86 c0 -52 -4 -106 -8 -120 -5 -15 -8 33 -8 120 0 87 3 135 8 120
4 -14 8 -68 8 -120z m362 121 c0 -3 -9 -12 -19 -18 -16 -10 -20 -9 -25 3 -10
27 -7 31 19 26 14 -2 25 -7 25 -11z m950 -4 c0 -13 -5 -17 -16 -13 -9 3 -18 6
-20 6 -2 0 -4 6 -4 13 0 7 9 13 20 13 13 0 20 -7 20 -19z m-1126 -399 l7 -38
-47 0 c-43 0 -46 2 -41 23 3 12 14 67 24 122 l18 99 16 -84 c9 -47 19 -102 23
-122z m1316 87 c11 -60 20 -112 20 -117 0 -4 -21 -8 -46 -8 -33 0 -45 4 -41
13 2 6 13 60 23 119 10 59 19 106 21 104 2 -1 12 -52 23 -111z m-1468 -72 c5
-51 4 -53 -20 -53 -25 0 -25 0 -18 68 4 37 10 85 13 107 l7 40 7 -55 c4 -30 9
-79 11 -107z m1594 52 l9 -105 -25 0 -25 0 9 105 c5 58 12 105 16 105 3 0 11
-47 16 -105z m-1329 -103 c-16 -2 -31 -2 -33 0 -2 3 9 39 24 81 l27 77 5 -78
5 -77 -28 -3z m1037 81 c10 -32 21 -64 23 -70 3 -9 -5 -13 -23 -13 l-29 0 0
70 c0 38 3 70 6 70 3 0 13 -26 23 -57z"/>
</g>
</svg>
